<svg width="200" height="200" viewBox="0 0 200 200" fill="none" xmlns="http://www.w3.org/2000/svg">
	<rect width="200" height="200" rx="20" fill="white" />
	<path fill-rule="evenodd" clip-rule="evenodd"
		d="M104.024 31.0434C103.054 31.2024 102.187 31.5574 101.4 31.97C103.36 32.8547 104.585 34.25 105.359 35.932C105.434 36.1681 105.531 36.3295 105.606 36.5656C105.674 36.7671 105.743 36.9687 105.777 37.176C106.414 40.1928 105.54 40.7261 105.176 42.6301C104.55 45.1091 105.235 47.5505 106.776 49.3551C106.92 49.5798 107.104 49.8334 107.316 50.0468C104.567 41.5239 111.665 39.0129 112.57 36.0627C112.283 33.6624 110.047 32.3973 108.307 31.5476C106.669 30.8937 105.272 30.8389 104.024 31.0434ZM115.369 31.206C115.36 32.0232 115.43 31.7989 115.464 32.2191C115.474 32.5011 115.531 32.8465 115.542 33.1285C115.518 33.4161 115.493 33.7038 115.435 33.9972C115.411 34.2849 115.352 34.5782 115.293 34.8716C115.2 35.1707 115.136 35.4295 115.042 35.7285C114.961 35.8838 114.914 36.0332 114.833 36.1884C114.781 36.3034 114.728 36.4184 114.676 36.5334C114.542 36.8036 114.409 37.0737 114.269 37.3094C114.095 37.5507 113.962 37.8209 113.747 38.0334L113.753 38.0679C113.573 38.2747 113.399 38.5161 113.185 38.7285C112.548 39.4004 111.784 39.9512 111.106 40.5943C110.892 40.8068 110.672 40.9847 110.498 41.226C110.284 41.4385 110.104 41.6452 109.93 41.8866C109.721 42.1336 109.582 42.3692 109.414 42.6451C109.274 42.8807 109.106 43.1566 109.007 43.4211C108.873 43.6913 108.739 43.9614 108.64 44.2259C108.547 44.525 108.483 44.7838 108.389 45.0829C108.331 45.3762 108.266 45.635 108.242 45.9227C108.189 46.2506 108.165 46.5383 108.141 46.826C108.129 46.9699 108.157 47.1425 108.145 47.2864C108.133 47.4303 108.156 47.5684 108.144 47.7122C108.189 47.9885 108.206 48.3051 108.251 48.5814C108.285 48.7887 108.319 48.9959 108.388 49.1975C108.433 49.4738 108.513 49.7444 108.633 50.0439C108.713 50.3146 108.828 50.5795 108.942 50.8445C109.091 51.1038 109.206 51.3687 109.355 51.628C109.453 51.7894 109.585 51.945 109.677 52.0718L101.202 50.3041C99.7876 50.1457 98.4139 50.0161 97.0113 49.9267C96.2551 49.8733 95.4989 49.8199 94.7428 49.7665C92.5953 49.6928 90.4301 49.7284 88.2819 49.8676C88.2126 49.879 88.1722 49.8501 88.1029 49.8614C85.9893 49.995 83.9274 50.2265 81.8478 50.5672C80.3228 50.8172 78.8091 51.1361 77.3357 51.484C75.2441 51.9687 73.1751 52.5914 71.1174 53.2833C70.6088 53.4375 70.1059 53.6264 69.603 53.8152C68.5625 54.1985 67.5624 54.6107 66.5968 55.0172C66.0996 55.2406 65.6023 55.4639 65.105 55.6873C64.6191 55.9797 64.1735 56.301 63.7222 56.5878C63.3693 56.823 63.0163 57.0581 62.6634 57.2933C62.5998 57.3393 62.5303 57.3506 62.5014 57.3908C62.1831 57.6203 61.8938 57.8095 61.6101 58.0334C61.5118 58.085 61.4481 58.1308 61.3845 58.1767C61.0315 58.4119 60.6842 58.6816 60.4006 58.9055C60.175 59.0488 59.955 59.2268 59.764 59.3645C59.6713 59.4505 59.544 59.5424 59.4804 59.5883C59.1967 59.8121 58.9131 60.0359 58.6641 60.2541C58.3805 60.4779 58.1315 60.696 57.9172 60.9085C57.7029 61.121 57.4829 61.2989 57.3032 61.5056C57.2742 61.5459 57.2396 61.5516 57.2105 61.5917C57.0252 61.764 56.8109 61.9764 56.6313 62.1832C56.6313 62.1832 56.6022 62.2235 56.5733 62.2636C56.4227 62.4302 56.272 62.5967 56.1213 62.7633C56.0577 62.8092 55.9996 62.8896 55.936 62.9356C55.7854 63.1022 55.6404 63.3032 55.4897 63.4698C55.4663 63.5445 55.4027 63.5904 55.3737 63.6307C55.1997 63.8721 55.02 64.0788 54.846 64.3202C54.8113 64.3258 54.817 64.3604 54.7881 64.4005C54.6084 64.6073 54.4344 64.8486 54.2604 65.09C54.2313 65.1302 54.237 65.1647 54.2024 65.1703C54.0575 65.3714 53.9125 65.5725 53.7731 65.8082C53.7152 65.8886 53.6225 65.9748 53.5645 66.0552C53.4251 66.2908 53.2511 66.5321 53.0771 66.7735C53.0537 66.8482 52.9901 66.8941 52.9667 66.9689C52.7347 67.2907 52.5374 67.6067 52.3054 67.9285C52.2763 67.9688 52.2474 68.0089 52.2184 68.0492C51.7601 68.7272 51.2671 69.411 50.7281 70.0313C50.1948 70.6862 49.6212 71.3122 49.0362 71.8692C48.4222 72.4663 47.8316 72.9887 47.1717 73.5225C46.5407 74.016 45.8695 74.4807 45.1579 74.9166C44.481 75.3467 43.7638 75.748 43.0409 76.1147C41.6361 76.6641 40.2419 77.4955 38.9765 77.8093C38.6992 77.8548 38.3986 77.9749 38.127 78.0549C37.8264 78.1751 37.5604 78.2897 37.2945 78.4042C37.0342 78.5532 36.7739 78.7023 36.5136 78.8513C36.2533 79.0004 35.9986 79.184 35.744 79.3676C35.5297 79.5801 35.275 79.7637 35.0607 79.9761C34.8464 80.1886 34.6377 80.4356 34.4637 80.6769C34.2494 80.8894 34.0464 81.1709 33.8724 81.4122C33.7041 81.6881 33.5301 81.9294 33.3964 82.1996C33.2684 82.5043 33.1001 82.7802 33.0067 83.0792C32.873 83.3494 32.745 83.6541 32.6516 83.9532C32.5639 84.2868 32.4706 84.5858 32.4176 84.9137C32.3589 85.2071 32.3058 85.535 32.2528 85.8629C32.2288 86.1506 32.2046 86.4383 32.2153 86.7202C32.221 86.7549 32.1919 86.795 32.1976 86.8296C32.1793 87.1518 32.2472 87.5663 32.2464 87.7792C32.2514 88.0267 32.2508 88.2396 32.2904 88.4814C32.313 88.6196 32.3413 88.7922 32.3987 88.9247C32.473 89.1608 32.5415 89.3624 32.6449 89.5583C32.7481 89.7541 32.8515 89.95 32.9894 90.1402L32.9951 90.1748C33.133 90.365 33.3056 90.5496 33.4782 90.7341C33.6509 90.9186 33.8234 91.1031 34.0307 91.282C34.2323 91.4263 34.4742 91.5994 34.7105 91.7381C34.9524 91.9112 35.1887 92.0498 35.4596 92.1828C36.4103 92.7718 36.6579 92.9795 37.8229 93.3561C38.0132 93.4313 38.1978 93.472 38.4227 93.5416C38.4575 93.5359 38.4977 93.5648 38.5324 93.5591C38.5437 93.6281 38.5494 93.6627 38.5954 93.7261C38.6754 93.9968 38.7899 94.2617 38.9045 94.5267C39.0248 94.8262 39.1741 95.0855 39.3177 95.3102C39.4556 95.5004 39.5589 95.6963 39.6968 95.8865C39.7429 95.9499 39.7888 96.0134 39.8291 96.0422C40.0131 96.2958 40.1913 96.5149 40.3696 96.7339C40.5825 96.9473 40.7954 97.1607 41.0083 97.3741C41.2156 97.5529 41.4632 97.7606 41.7051 97.9338C41.947 98.107 42.1833 98.2456 42.4599 98.413C42.4599 98.413 42.5003 98.442 42.5348 98.4363C42.7711 98.575 43.0073 98.7136 43.2379 98.8177C43.5088 98.9506 43.7741 99.049 44.074 99.1417C44.3393 99.2402 44.6392 99.3329 44.9335 99.391C45.1584 99.4606 45.4123 99.4899 45.6663 99.5192C45.7067 99.5482 45.7412 99.5425 45.8163 99.5655C45.9607 99.5774 46.1395 99.5834 46.2838 99.5953C46.4855 101.478 46.7395 103.245 47.1187 103.821C47.5439 104.461 48.7236 102.104 49.8525 99.4361C50.0351 101.854 50.3549 104.674 50.8374 105.446C51.3601 106.247 52.9982 103.212 54.3137 99.9464C77.9593 90.2548 103.158 103.505 109.432 127.021C108.37 123.364 103.42 122.047 101.391 122.912C100.77 125.638 99.5401 129.209 97.032 131.713C96.901 129.393 96.4122 127.062 95.5533 124.861C95.3115 128.164 94.3079 131.379 92.6818 134.27C89.4288 135.051 85.8757 134.002 83.7522 131.903C83.5965 131.822 83.5279 131.62 83.4013 131.499C83.2577 131.274 83.1141 131.05 83.0051 130.819C82.8615 130.594 82.7526 130.364 82.6783 130.128C82.604 129.892 82.5644 129.65 82.5191 129.374C82.4908 129.201 82.4625 129.028 82.4342 128.856C82.4293 128.608 82.4589 128.355 82.4886 128.102C82.5182 127.849 82.5481 127.596 82.6124 127.337C82.7114 127.072 82.7757 126.813 82.9094 126.543C83.2269 124.789 83.0062 123.442 81.8016 122.823C81.5709 122.719 81.346 122.65 81.0864 122.586C80.942 122.574 80.7575 122.533 80.6132 122.521C80.5035 122.504 80.4286 122.481 80.3189 122.463C80.065 122.434 79.811 122.405 79.5628 122.41C79.3088 122.381 79.0605 122.386 78.8179 122.425C78.5696 122.431 78.2867 122.442 78.0441 122.481C77.8708 122.51 77.7032 122.573 77.5299 122.601C77.2526 122.647 77.0156 122.721 76.7843 122.83C76.5474 122.904 76.3104 122.978 76.0791 123.087C75.8478 123.196 75.6165 123.305 75.3909 123.448C75.1652 123.592 74.9743 123.729 74.7486 123.873C74.5577 124.01 74.3723 124.183 74.1467 124.326C66.9313 130.9 73.7641 142.407 79.858 145.061C77.8407 145.782 75.8 146.577 75.2844 147.123C75.2553 147.163 75.2264 147.203 75.2264 147.203C76.864 147.857 78.5482 148.361 80.2847 148.751C82.6218 149.113 85.0862 149.383 86.1713 149.489L86.177 149.523C89.15 149.639 92.0954 149.369 95.0132 148.714C110.192 145.127 120.866 131.425 120.641 115.714C120.761 116.013 120.875 116.278 120.996 116.578C121.202 117.183 121.448 117.816 121.625 118.461L121.63 118.496C121.75 118.795 121.836 119.1 121.916 119.371L121.939 119.509C122.024 119.814 122.11 120.12 122.155 120.396C122.252 120.77 122.349 121.144 122.411 121.524L122.502 122.077C122.53 122.25 122.599 122.451 122.627 122.624C122.661 122.831 122.66 123.044 122.694 123.251L122.773 123.735C122.813 123.977 122.812 124.19 122.852 124.431C122.875 124.57 122.897 124.708 122.891 124.886C122.93 125.128 122.935 125.375 122.981 125.652C122.963 125.761 122.98 125.865 122.997 125.968C123.007 126.25 123.012 126.498 123.023 126.78C123.04 126.883 123.057 126.987 123.039 127.096C123.061 127.447 123.043 127.77 123.065 128.121L123.07 128.155L123.076 128.19C123.058 128.512 123.045 128.869 123.027 129.191L123.044 129.295C123.025 129.617 123.007 129.939 122.988 130.261C122.994 130.296 122.971 130.371 122.976 130.405C122.958 130.728 122.94 131.05 122.887 131.378L122.904 131.481C122.856 131.844 122.803 132.172 122.785 132.494C122.756 132.534 122.761 132.569 122.761 132.569C122.714 132.931 122.667 133.294 122.619 133.656C122.537 134.024 122.484 134.352 122.402 134.72C122.32 135.088 122.273 135.451 122.185 135.784C122.103 136.152 122.015 136.486 121.933 136.854L121.898 136.86C121.811 137.193 121.729 137.562 121.606 137.901C121.589 138.01 121.565 138.085 121.542 138.16C121.513 138.2 121.519 138.234 121.49 138.275C119.978 143.169 117.302 147.686 113.652 151.476C113.403 151.694 113.16 151.947 112.917 152.2C112.859 152.28 112.76 152.332 112.702 152.412C112.488 152.625 112.274 152.837 112.025 153.055L112.163 153.245L112.197 153.24C112.671 153.091 113.145 152.943 113.619 152.794L113.654 152.788C114.532 152.502 115.405 152.182 116.278 151.862C116.515 151.787 116.781 151.673 117.012 151.564C117.18 151.501 117.313 151.444 117.48 151.381C117.717 151.306 117.949 151.198 118.186 151.123C118.382 151.02 118.585 150.952 118.781 150.848C122.111 149.451 125.287 147.761 128.289 145.885C124.007 154.284 117.615 161.538 109.635 166.925C113.576 165.995 117.454 164.686 121.12 162.95C134.415 156.551 144.63 145.265 149.6 131.504C149.487 139.716 147.543 147.838 143.916 155.242C146.916 152.48 149.582 149.419 151.914 146.057C158.353 136.703 161.767 125.609 161.695 114.307C163.767 119.571 165.037 125.144 165.428 130.79C184.753 91.9073 155.898 59.6071 144.741 51.6818C144.695 51.6184 144.655 51.5895 144.643 51.5204C144.614 51.5607 144.614 51.5607 144.62 51.5951C144.614 51.5606 144.614 51.5606 144.574 51.5318C144.642 51.9463 144.675 52.3664 144.709 52.7866C144.735 53.5981 144.755 54.375 144.741 55.1576C144.692 55.9459 144.609 56.7399 144.525 57.5338C144.402 58.2989 144.249 59.1043 144.056 59.8808C143.857 60.6227 143.629 61.4048 143.361 62.1581C143.088 62.8769 142.785 63.6358 142.436 64.3314C142.093 65.0615 141.71 65.7628 141.321 66.4294C140.903 67.1364 140.439 67.7799 139.975 68.4234C139.679 68.7911 139.413 69.1185 139.111 69.4517C138.874 69.7389 138.665 69.9859 138.427 70.2731C137.883 70.8589 137.332 71.4102 136.707 71.9383C136.116 72.4607 135.491 72.9887 134.855 73.4477C134.183 73.9124 133.506 74.3426 132.829 74.7727C132.147 75.1683 131.424 75.535 130.695 75.8673C129.967 76.1994 129.198 76.5028 128.458 76.7659C127.684 77.0348 126.898 77.2344 126.147 77.4285C125.598 77.5539 125.049 77.6792 124.494 77.7701C123.697 77.9008 122.889 77.9624 122.115 78.0181C121.306 78.0797 120.492 78.1067 119.701 78.0589C118.881 78.0514 118.085 77.9691 117.283 77.8523L117.248 77.858C117.999 77.664 118.75 77.4699 119.49 77.2068C120.265 76.9379 120.999 76.6404 121.728 76.3081C122.456 75.9759 123.179 75.6092 123.862 75.2136C124.579 74.8123 125.25 74.3477 125.887 73.8886C126.558 73.4239 127.154 72.9361 127.78 72.408C128.365 71.8511 128.949 71.2941 129.494 70.7083C130.039 70.1225 130.543 69.5079 131.007 68.8643C131.511 68.2497 131.935 67.5773 132.359 66.9049C132.777 66.198 133.16 65.4967 133.509 64.8012C133.561 64.6862 133.608 64.5366 133.66 64.4217C133.916 63.8122 134.172 63.2028 134.394 62.599C134.662 61.8457 134.895 61.0981 135.088 60.3217C135.281 59.5452 135.44 58.7744 135.558 57.9747C135.681 57.2096 135.73 56.4213 135.779 55.6331C135.787 54.8159 135.802 54.0333 135.746 53.262C135.685 52.4563 135.625 51.6504 135.5 50.8906C135.41 50.3379 135.284 49.791 135.159 49.244C134.96 48.4609 134.731 47.718 134.503 46.9752C134.234 46.2035 133.936 45.472 133.604 44.7462C133.242 44.0606 132.875 43.3404 132.479 42.6605C132.083 41.9806 131.617 41.3121 131.157 40.6781C130.663 40.0497 130.168 39.4214 129.645 38.8333C129.087 38.2509 128.534 37.703 127.947 37.1607C127.331 36.6588 126.715 36.1568 126.064 35.6605C125.742 35.4296 125.379 35.1698 125.022 34.9446C123.264 33.9913 121.448 33.1184 119.649 32.3491C119.384 32.2507 119.159 32.1812 118.899 32.1173C117.637 31.5794 116.5 31.3754 115.369 31.206Z"
		fill="#E0234E" />
	<path
		d="M62.3333 125.333C62.3333 140 69 138.667 69 145.333C69 145.333 69 148 66.3333 148H31.6667C29 148 29 145.333 29 145.333C29 138.667 35.6667 140 35.6667 125.333C35.6667 117.971 41.636 112 49 112C56.364 112 62.3333 117.971 62.3333 125.333Z"
		fill="#FFAC33" />
	<path
		d="M49 116C51.2091 116 53 114.209 53 112C53 109.791 51.2091 108 49 108C46.7909 108 45 109.791 45 112C45 114.209 46.7909 116 49 116Z"
		fill="#FFAC33" />
	<path
		d="M49.0001 156C50.4146 156 51.7711 155.438 52.7713 154.438C53.7715 153.438 54.3334 152.081 54.3334 150.667H43.6667C43.6667 152.081 44.2287 153.438 45.2288 154.438C46.229 155.438 47.5856 156 49.0001 156Z"
		fill="#FFAC33" />
</svg>
